<?xml version="1.0" standalone="no"?>
<!DOCTYPE svg PUBLIC "-//W3C//DTD SVG 1.1//EN" "http://www.w3.org/Graphics/SVG/1.1/DTD/svg11.dtd">
<svg xmlns="http://www.w3.org/2000/svg" xmlns:xlink="http://www.w3.org/1999/xlink" version="1.1" id="Layer_1" x="0px" y="0px" width="554" viewBox="0 0 554 554" enable-background="new 0 0 554 554" xml:space="preserve" height="554">
<path fill="#FFFEFE" opacity="1.000000" stroke="none" d=" M313.000000,555.000000   C208.690079,555.000000 104.880157,555.000000 1.035119,555.000000   C1.035119,370.398376 1.035119,185.796768 1.035119,1.097578   C185.559937,1.097578 370.119934,1.097578 554.839966,1.097578   C554.839966,185.666550 554.839966,370.333252 554.839966,555.000000   C474.463409,555.000000 393.981720,555.000000 313.000000,555.000000  M229.290390,317.623474   C230.531967,318.109711 231.773560,318.595917 233.176651,319.247620   C233.176651,319.247620 233.394226,319.169373 233.908386,319.741241   C239.940384,321.317719 245.972382,322.894165 252.803223,324.851654   C264.747894,324.939667 276.760681,325.876099 288.621765,324.923340   C307.977386,323.368469 322.134796,313.729553 330.397247,295.532104   C337.944763,278.909302 336.668396,263.512299 324.385559,250.169495   C316.901581,242.039688 308.107971,234.947769 299.198242,228.339264   C287.179047,219.424484 274.330750,211.635223 262.148590,202.928787   C257.055206,199.288605 252.175919,195.013596 248.206345,190.197220   C234.736603,173.854141 242.014252,153.324142 262.815338,149.099899   C280.573914,145.493500 296.183105,150.088226 308.694244,163.535187   C312.980804,168.142380 316.774628,173.208023 321.033020,178.694870   C321.920380,179.664520 322.807770,180.634171 323.988647,181.924545   C323.988647,177.141632 323.988647,173.073578 324.157379,168.100357   C324.081360,164.726807 324.005341,161.353271 324.044525,157.151047   C323.715576,155.065536 323.386627,152.980011 323.030609,150.967712   C323.030609,150.967712 323.108459,150.973755 322.983856,150.378342   C322.685913,150.113739 322.388000,149.849121 321.824432,148.993027   C318.488495,146.850372 315.365540,144.220200 311.778198,142.652969   C299.082550,137.106598 285.654053,135.228226 271.851562,135.223465   C251.860947,135.216568 236.005707,142.767242 225.105469,159.891174   C224.095520,161.477753 222.751144,162.851471 221.267120,164.689285   C212.921494,152.421234 205.082062,140.672012 197.008560,129.085892   C186.751114,114.365662 176.303879,99.777695 165.705963,84.537956   C165.239273,84.197838 164.772598,83.857727 164.305923,83.517609   C164.211044,84.343582 164.116165,85.169563 163.820450,86.870399   C163.917007,89.258812 164.013565,91.647224 163.996262,94.962219   C164.031616,116.628410 164.066956,138.294601 163.925339,160.888504   C163.915939,163.220474 163.917603,165.552567 163.895493,167.884415   C163.547928,204.525986 163.178452,241.167389 162.859375,277.809204   C162.768936,288.195740 159.264038,296.663239 149.839981,301.997070   C149.476334,302.202881 149.261978,302.672516 148.465088,303.645538   C164.560349,303.645538 180.035889,303.645538 195.524643,303.645538   C195.547180,303.531097 195.656067,303.315369 195.593674,303.238220   C195.280304,302.850830 194.974609,302.423340 194.572098,302.146973   C184.545059,295.261688 182.071838,285.156128 182.090759,273.770386   C182.157730,233.456390 182.079483,193.142151 182.072403,152.828003   C182.072174,151.508469 182.246552,150.188904 182.436844,147.488312   C194.507767,162.703110 206.210571,176.387375 216.621368,190.992615   C222.482178,199.214706 228.241882,207.283295 236.356232,213.264694   C254.572205,226.692459 273.114777,239.679626 291.240204,253.226395   C296.908966,257.463196 302.521606,262.287994 306.680939,267.933350   C318.202454,283.570984 310.907990,306.691010 293.245178,312.373962   C272.721802,318.977264 246.961502,310.862671 234.030212,293.726532   C231.327423,290.144867 228.607407,286.576202 225.693176,282.384796   C224.620071,281.116364 223.546951,279.847931 222.473831,278.579498   C221.320938,289.467316 221.265884,299.916260 221.393845,310.362946   C221.409058,311.604004 222.424026,312.832794 223.334900,314.498962   C223.852066,314.680115 224.369232,314.861298 225.318192,315.549225   C226.527054,316.081329 227.735931,316.613464 228.942917,317.056915   C228.942917,317.056915 228.866455,317.101807 229.290390,317.623474  M346.745514,390.928802   C346.734741,399.391022 346.667236,407.853638 346.730652,416.315308   C346.784180,423.459900 349.371429,429.445770 356.016479,432.684326   C362.744934,435.963531 369.501068,435.570892 375.797058,431.158051   C376.446259,430.703003 377.154022,430.331543 377.922028,429.868591   C378.409241,431.427490 378.822418,432.749634 379.178864,433.890076   C382.737701,433.890076 385.881378,433.890076 389.581787,433.944000   C389.711090,433.631927 389.840393,433.319824 390.157745,432.085571   C390.102051,418.056335 390.046356,404.027130 390.105774,389.497101   C390.037018,389.340210 389.968231,389.183350 389.524902,388.280029   C386.060791,388.280029 382.596680,388.280029 378.548889,388.280029   C378.548889,390.271027 378.549561,392.058441 378.548737,393.845856   C378.545746,400.490173 378.610687,407.135529 378.513977,413.778473   C378.453278,417.948029 377.352142,421.702850 373.219757,423.756287   C365.986115,427.350739 358.491882,422.782867 358.203217,414.383942   C357.923920,406.257294 358.015259,398.117920 358.047363,389.500641   C358.047363,389.500641 357.859222,389.043396 357.524689,388.286804   C354.039520,388.530640 350.554352,388.774445 346.832672,389.494904   C346.873474,389.667480 346.914307,389.840088 346.745514,390.928802  M255.124390,372.932983   C252.410400,372.981079 249.696426,373.029205 246.344360,373.039978   C246.174454,373.377716 246.004547,373.715424 245.609039,374.960999   C245.609039,380.996307 245.609039,387.031647 245.609039,393.602753   C233.621933,385.472504 222.412613,385.974609 215.210098,394.363617   C207.597610,403.230011 207.704285,419.329315 215.433624,428.109802   C222.958969,436.658600 233.652603,437.064056 245.082047,429.058472   C245.356110,430.712585 245.612030,432.257202 245.880630,433.878387   C249.424545,433.878387 252.726074,433.878387 256.583008,433.931396   C256.715057,433.622742 256.847107,433.314087 257.182220,432.086182   C257.125305,412.725067 257.068390,393.363983 257.041229,373.419189   C256.700470,373.305023 256.359680,373.190826 255.124390,372.932983  M85.855896,434.049622   C88.580154,433.993896 91.304420,433.938171 94.593842,433.929840   C94.733002,433.618866 94.872154,433.307892 95.223740,432.080322   C95.223740,421.052612 95.223740,410.024902 95.223740,398.997223   C100.498184,409.152985 104.893822,419.469574 109.037460,429.886444   C110.225540,432.873169 111.597275,434.239044 115.125854,434.250732   C118.773674,434.262787 120.479919,433.002594 121.549522,429.740295   C122.633781,426.433411 124.115570,423.255188 125.457077,420.034698   C128.410446,412.944763 131.385132,405.863708 134.351105,398.779022   C134.665085,398.858002 134.979080,398.936981 135.293060,399.015961   C135.293060,410.604797 135.293060,422.193634 135.293060,433.767609   C139.271301,433.767609 142.846512,433.767609 146.541992,433.767609   C146.541992,414.563507 146.541992,395.674835 146.541992,376.830475   C134.209183,374.934357 134.228180,374.942474 129.701416,385.539032   C125.054199,396.417572 120.364639,407.278015 115.252647,419.172394   C110.196861,407.290405 105.602608,396.467865 100.987526,385.654175   C96.652779,375.497406 96.643059,375.500916 85.387115,376.488403   C85.228355,376.502319 85.077515,376.606384 84.299332,376.791504   C84.214378,377.189087 84.129433,377.586670 83.866936,378.909088   C83.933685,396.946075 84.000427,414.983093 84.040749,433.556244   C84.347824,433.663605 84.654892,433.770966 85.855896,434.049622  M398.043640,91.238136   C367.209106,134.626755 336.374542,178.015366 305.335907,221.691193   C310.165222,225.488312 314.679504,229.037750 319.411987,232.758743   C336.948669,207.227432 354.151855,182.181625 372.082581,156.076614   C372.362701,158.894089 372.622650,160.454102 372.655426,162.018890   C372.805389,169.180145 372.916290,176.342453 372.996521,183.504883   C373.306335,211.155609 374.069916,238.813034 373.689240,266.454529   C373.512543,279.286255 374.720581,293.249756 361.017700,302.775726   C379.791718,302.775726 397.263794,302.775726 414.675201,302.775726   C414.770386,302.357880 414.885925,302.154846 414.827148,302.060364   C414.388397,301.355286 413.975128,300.621277 413.443726,299.988892   C405.590607,290.642548 402.368439,280.072083 402.765472,267.706787   C403.347626,249.577515 402.700287,231.408783 402.733521,212.425003   C402.733521,170.464661 402.733521,128.504318 402.733521,86.543968   C402.327484,86.484688 401.921417,86.425407 401.515381,86.366127   C400.535736,87.867355 399.556122,89.368584 398.043640,91.238136  M258.714050,68.332710   C256.393158,70.828819 256.988159,73.055580 258.571472,75.913239   C261.766113,81.679207 265.020142,87.569450 267.008606,93.804268   C269.185486,100.629860 266.279572,105.643898 259.457550,109.979050   C254.566971,113.086830 248.395462,113.073807 243.932617,109.946266   C239.032028,106.511940 237.694885,101.525490 239.727936,93.808212   C240.857574,89.520187 242.132370,85.270416 243.579880,80.163239   C232.290894,79.656662 224.055878,73.825211 216.283203,66.861877   C223.220215,85.595345 230.565231,103.705330 238.119705,121.727516   C238.508331,122.654625 240.769791,123.422821 242.025253,123.256035   C248.785095,122.357925 255.514114,121.206093 262.232300,120.020241   C277.702087,117.289597 292.748840,120.342064 307.752838,123.452675   C310.928619,124.111076 312.192322,123.247131 313.389038,120.498665   C320.419373,104.352501 327.615143,88.278465 334.703613,72.157440   C335.490112,70.368774 335.950134,68.436546 336.624969,66.377411   C332.007629,69.572487 328.012787,72.915512 323.507812,75.291084   C319.018402,77.658478 314.017273,79.055489 309.210938,80.889252   C310.645172,85.730232 312.461548,90.735237 313.576202,95.891930   C315.177124,103.297813 311.685638,108.987617 304.846375,111.053734   C292.276886,114.850937 282.162811,105.987976 285.500946,93.363808   C287.206177,86.915031 291.111725,81.060295 293.869507,74.868820   C294.535645,73.373306 295.418274,71.154907 294.804016,70.036179   C289.160278,59.757923 283.208740,49.648666 276.994354,38.879204   C270.786804,48.844185 264.924042,58.255695 258.714050,68.332710  M322.538849,415.390137   C323.935822,419.797668 322.484467,422.992310 318.194550,424.573120   C312.426880,426.698456 308.376709,424.455872 305.139709,417.829895   C301.148010,417.829895 297.273956,417.829895 293.281494,417.829895   C293.875916,425.778229 297.955536,430.810120 304.887482,432.868439   C309.224854,434.156342 314.091522,434.726990 318.573120,434.245544   C328.373413,433.192719 334.409882,427.177460 335.060883,419.066925   C335.759949,410.357788 331.910217,405.411774 321.721252,401.872864   C317.642426,400.456177 313.503143,399.171295 309.538788,397.480743   C306.455353,396.165863 304.486542,393.241882 306.049896,390.235901   C307.199280,388.025909 310.065430,385.828430 312.502747,385.354462   C317.365082,384.408966 320.579071,387.444489 322.377838,392.346710   C326.342468,391.842072 330.187775,391.352600 334.159210,390.847076   C333.626556,384.710968 330.633209,380.627289 325.725616,378.246002   C317.771698,374.386414 309.568817,374.445312 301.656189,378.399231   C295.894257,381.278473 293.400452,386.345856 293.467651,392.734711   C293.536835,399.313202 296.766052,403.785431 302.729919,406.207306   C306.418549,407.705261 310.363281,408.583313 314.020691,410.143585   C316.851410,411.351227 319.414734,413.185547 322.538849,415.390137  M452.502747,434.190216   C465.529663,436.872650 478.192322,430.037231 478.716766,420.039673   C470.288452,419.402344 470.314270,419.442108 463.851654,423.637390   C458.274353,427.257935 447.324310,424.434570 447.517242,414.654297   C458.429413,414.654297 469.358429,414.654297 480.172882,414.654297   C484.139099,396.826447 468.343079,383.133301 450.735443,388.590149   C441.120789,391.569885 435.529083,399.577057 435.337891,410.638977   C435.136017,422.319427 440.679596,430.249390 452.502747,434.190216  M170.026764,414.815796   C180.617218,414.815796 191.207672,414.815796 201.677521,414.815796   C204.047150,401.247955 197.306137,390.420135 185.522980,388.044678   C171.649536,385.247833 160.316422,392.175903 157.397491,405.238159   C154.432144,418.508240 161.310120,431.012634 173.233429,434.028381   C186.017624,437.261841 197.639801,431.438721 200.801315,419.949707   C195.363052,420.161072 190.080627,418.342957 185.152802,423.290131   C183.264633,425.185791 177.899231,424.672943 174.530441,423.751282   C170.934402,422.767487 168.739883,419.458710 170.026764,414.815796  M414.762329,429.299988   C414.762390,424.139557 414.748993,418.979126 414.765228,413.818726   C414.801331,402.343903 416.461578,400.565552 427.785095,399.770538   C428.059906,399.751221 428.314636,399.445862 428.621979,399.245789   C428.621979,395.518463 428.621979,391.782196 428.621979,386.369720   C423.447021,388.868225 419.169495,390.933441 414.957733,392.966888   C414.819397,391.838440 414.608826,390.120789 414.408203,388.483948   C410.468658,388.483948 406.905975,388.483948 403.281250,388.483948   C403.281250,403.757080 403.281250,418.670868 403.281250,434.088470   C406.130096,434.088470 408.766602,433.900421 411.364563,434.136688   C414.518372,434.423523 415.047638,432.778961 414.762329,429.299988  M281.811432,430.262177   C281.811432,416.372070 281.811432,402.481934 281.811432,388.393433   C277.681183,388.393433 274.126923,388.393433 270.347534,388.393433   C270.347534,403.666870 270.347534,418.666412 270.347534,434.081970   C273.571716,434.081970 276.548920,434.299927 279.457825,433.950073   C280.338684,433.844116 281.030518,432.166687 281.811432,430.262177  M253.636139,463.414307   C253.038773,464.014496 251.925232,464.610413 251.920212,465.215515   C251.818527,477.461182 251.844025,489.707886 251.844025,502.253235   C253.576462,502.052368 254.790115,501.911621 256.281067,501.738739   C256.281067,496.366302 256.281067,491.330048 256.281067,486.075317   C263.381409,491.401062 270.003693,491.438660 274.740051,486.419159   C279.499512,481.375061 279.564117,471.788483 274.872559,466.755005   C270.152496,461.690918 263.489594,461.719940 256.704987,466.760773   C255.940430,465.644714 255.174515,464.526672 253.636139,463.414307  M213.401642,484.229736   C213.401642,474.941620 213.401642,465.653503 213.401642,456.385223   C211.734024,456.385223 210.514984,456.385223 208.961975,456.385223   C208.961975,461.285065 208.961975,465.887939 208.961975,470.701904   C203.226425,470.701904 197.831177,470.701904 192.047089,470.701904   C192.047089,465.763123 192.047089,461.000427 192.047089,456.023041   C190.421387,456.141907 189.207275,456.230713 187.967987,456.321320   C187.967987,467.612030 187.967987,478.576569 187.967987,489.605103   C189.331238,489.605103 190.553513,489.605103 192.262939,489.605103   C192.262939,484.476257 192.262939,479.593597 192.262939,474.785675   C198.044998,474.785675 203.327362,474.785675 209.082092,474.785675   C209.082092,479.866821 209.082092,484.783905 209.082092,489.708923   C210.698685,489.708923 211.838379,489.708923 213.401581,489.708923   C213.401581,488.091339 213.401581,486.621399 213.401642,484.229736  M336.936188,476.504089   C336.992310,481.887726 338.922302,486.402802 343.850769,488.875122   C349.266815,491.592102 354.348297,490.258881 357.678497,487.216553   C359.817047,488.441803 361.354858,489.322906 363.750610,490.695557   C363.750610,485.019531 363.750610,480.870209 363.750610,476.720886   C363.750610,472.428223 363.750610,468.135559 363.750610,462.256165   C361.173004,463.912842 359.596130,464.926331 357.776672,466.095734   C348.565643,459.137939 338.795166,463.209167 336.936188,476.504089  M272.642853,126.021286   C284.951721,127.257256 297.260590,128.493225 309.956482,129.768051   C309.999084,129.590698 310.288361,128.386230 310.635162,126.942238   C286.949646,119.338432 263.660065,119.808830 239.912033,126.906273   C240.495682,128.558746 240.951019,129.847977 241.092514,130.248566   C251.668579,128.797104 261.682678,127.422768 272.642853,126.021286  M228.315948,489.724396   C234.480042,490.871887 239.988480,489.969238 243.692841,484.317871   C247.950974,477.821747 246.048676,468.679504 239.805649,464.925079   C233.040283,460.856445 224.265182,463.093750 220.801804,469.770325   C216.970871,477.155457 219.902359,485.589813 228.315948,489.724396  M301.945129,471.093750   C302.215790,470.616577 302.806946,470.057465 302.709076,469.674500   C301.213562,463.824554 293.496063,460.802094 287.636200,464.227234   C285.649597,465.388428 283.537170,468.204437 283.499329,470.300690   C283.461884,472.373718 285.567505,475.042023 287.473022,476.441956   C289.506439,477.935760 292.541962,477.983673 294.879700,479.174072   C296.427124,479.962036 297.516205,481.650238 298.810455,482.935394   C297.016724,484.103271 295.324036,485.942810 293.398193,486.232544   C291.775360,486.476654 289.845581,484.993103 288.118408,484.139343   C286.537506,483.357941 285.045959,482.395752 282.532562,480.946838   C284.635376,488.604614 290.522583,491.764496 296.950226,489.819824   C300.312561,488.802582 302.963501,486.818939 303.089508,482.857025   C303.209961,479.070312 300.780731,477.156738 297.616180,475.991516   C295.126892,475.074921 292.441284,474.609039 290.085052,473.450531   C289.006439,472.920135 287.690674,470.969574 287.945801,470.085144   C288.308105,468.828979 290.145966,466.994202 291.130737,467.122009   C293.487915,467.427917 295.723145,468.715820 297.991180,469.647339   C299.093781,470.100220 300.159546,470.642731 301.945129,471.093750  M326.303741,482.238159   C326.303741,477.297516 326.303741,472.356842 326.303741,466.978577   C328.855804,466.978577 330.927704,466.978577 333.080078,466.978577   C333.615631,460.625519 327.945801,465.182007 326.248352,461.937225   C326.248352,460.856628 326.248352,459.065796 326.248352,457.070557   C324.706116,457.070557 323.460846,457.070557 322.315857,457.070557   C321.182983,459.424164 323.738922,463.203247 319.256622,463.777679   C319.477051,464.854736 319.537903,465.999512 319.958649,466.991608   C320.474060,468.206940 321.776611,469.251343 321.882812,470.445801   C322.161987,473.584991 321.974274,476.765503 321.977600,479.929535   C321.986572,488.541138 323.917542,490.269135 332.978271,489.570801   C332.978271,488.489380 332.978271,487.388153 332.978271,487.574829   C330.306671,485.784943 328.351257,484.474854 326.303741,482.238159  M375.832733,480.438812   C375.832733,471.803375 375.832733,463.167938 375.832733,454.360352   C374.140472,454.360352 372.820129,454.360352 371.527832,454.360352   C371.527832,466.342621 371.527832,477.948883 371.527832,489.484924   C374.811584,490.663513 376.151764,489.691467 375.858185,486.409424   C375.710388,484.757141 375.832611,483.080719 375.832733,480.438812  M280.709106,381.226501   C283.802704,378.184418 284.173431,374.763367 281.326416,371.554016   C278.672455,368.562286 275.159302,368.415100 271.877258,370.545624   C268.849976,372.510834 267.991241,375.605042 269.565765,378.800629   C271.569641,382.867584 275.056549,383.719666 279.202789,382.142639   C279.510162,382.025757 279.797852,381.857147 280.709106,381.226501  M309.862732,463.620270   C309.862732,472.305389 309.862732,480.990509 309.862732,489.709991   C312.227600,490.291992 313.898468,490.230682 313.795227,486.814484   C313.589661,480.010193 313.645172,473.193573 313.781006,466.385803   C313.829041,463.979218 313.065796,462.950775 309.862732,463.620270  M314.144928,457.142426   C313.337891,455.782623 312.530823,454.422821 311.723785,453.063019   C310.804382,453.630371 309.341431,454.028778 309.099701,454.806702   C308.779694,455.836517 309.174835,458.049011 309.686951,458.187805   C310.964020,458.533997 312.480927,457.995239 314.144928,457.142426  z"/>
<path fill="#EC3338" opacity="1.000000" stroke="none" d=" M165.938477,85.132690   C176.303879,99.777695 186.751114,114.365662 197.008560,129.085892   C205.082062,140.672012 212.921494,152.421234 221.267120,164.689285   C222.751144,162.851471 224.095520,161.477753 225.105469,159.891174   C236.005707,142.767242 251.860947,135.216568 271.851562,135.223465   C285.654053,135.228226 299.082550,137.106598 311.778198,142.652969   C315.365540,144.220200 318.488495,146.850372 322.034088,149.582428   C322.531982,150.439133 322.820221,150.706436 323.108459,150.973755   C323.108459,150.973755 323.030609,150.967712 323.033539,151.355911   C323.334076,153.822647 323.631683,155.901184 323.929321,157.979721   C324.005341,161.353271 324.081360,164.726807 323.781830,168.829254   C321.589691,172.103027 325.399994,176.376266 320.793549,178.064209   C316.774628,173.208023 312.980804,168.142380 308.694244,163.535187   C296.183105,150.088226 280.573914,145.493500 262.815338,149.099899   C242.014252,153.324142 234.736603,173.854141 248.206345,190.197220   C252.175919,195.013596 257.055206,199.288605 262.148590,202.928787   C274.330750,211.635223 287.179047,219.424484 299.198242,228.339264   C308.107971,234.947769 316.901581,242.039688 324.385559,250.169495   C336.668396,263.512299 337.944763,278.909302 330.397247,295.532104   C322.134796,313.729553 307.977386,323.368469 288.621765,324.923340   C276.760681,325.876099 264.747894,324.939667 252.273041,324.337830   C245.626648,322.272461 239.510437,320.720917 233.394226,319.169373   C233.394226,319.169373 233.176651,319.247620 232.938416,318.843567   C231.422287,317.993622 230.144363,317.547699 228.866455,317.101807   C228.866455,317.101807 228.942917,317.056915 228.813385,316.766724   C227.418030,315.998535 226.152206,315.520508 224.886398,315.042480   C224.369232,314.861298 223.852066,314.680115 223.161560,313.810059   C222.991440,304.387695 223.009689,295.654175 222.986893,286.920746   C222.981461,284.841309 222.863281,282.780365 225.895325,283.001526   C228.607407,286.576202 231.327423,290.144867 234.030212,293.726532   C246.961502,310.862671 272.721802,318.977264 293.245178,312.373962   C310.907990,306.691010 318.202454,283.570984 306.680939,267.933350   C302.521606,262.287994 296.908966,257.463196 291.240204,253.226395   C273.114777,239.679626 254.572205,226.692459 236.356232,213.264694   C228.241882,207.283295 222.482178,199.214706 216.621368,190.992615   C206.210571,176.387375 194.507767,162.703110 182.436844,147.488312   C182.246552,150.188904 182.072174,151.508469 182.072403,152.828003   C182.079483,193.142151 182.157730,233.456390 182.090759,273.770386   C182.071838,285.156128 184.545059,295.261688 194.572098,302.146973   C194.974609,302.423340 195.280304,302.850830 195.593674,303.238220   C195.656067,303.315369 195.547180,303.531097 195.524643,303.645538   C180.035889,303.645538 164.560349,303.645538 148.465088,303.645538   C149.261978,302.672516 149.476334,302.202881 149.839981,301.997070   C159.264038,296.663239 162.768936,288.195740 162.859375,277.809204   C163.178452,241.167389 163.547928,204.525986 163.895493,167.884415   C163.917603,165.552567 163.915939,163.220474 164.301804,160.127533   C164.776886,138.161072 164.882324,116.955574 164.937622,95.749954   C164.939102,95.179230 164.398132,94.607109 164.110138,94.035637   C164.013565,91.647224 163.917007,89.258812 164.199493,86.423210   C165.031860,85.694908 165.485168,85.413803 165.938477,85.132690  z"/>
<path fill="#EC3439" opacity="1.000000" stroke="none" d=" M402.576843,213.256866   C402.700287,231.408783 403.347626,249.577515 402.765472,267.706787   C402.368439,280.072083 405.590607,290.642548 413.443726,299.988892   C413.975128,300.621277 414.388397,301.355286 414.827148,302.060364   C414.885925,302.154846 414.770386,302.357880 414.675201,302.775726   C397.263794,302.775726 379.791718,302.775726 361.017700,302.775726   C374.720581,293.249756 373.512543,279.286255 373.689240,266.454529   C374.069916,238.813034 373.306335,211.155609 372.996521,183.504883   C372.916290,176.342453 372.805389,169.180145 372.655426,162.018890   C372.622650,160.454102 372.362701,158.894089 372.082581,156.076614   C354.151855,182.181625 336.948669,207.227432 319.411987,232.758743   C314.679504,229.037750 310.165222,225.488312 305.335907,221.691193   C336.374542,178.015366 367.209106,134.626755 398.737335,91.147263   C399.952789,92.976349 400.924957,94.895195 400.929718,96.816460   C401.021454,133.677612 400.975586,170.539108 401.068329,207.400269   C401.073242,209.353729 402.051636,211.304718 402.576843,213.256866  z"/>
<path fill="#EC3439" opacity="1.000000" stroke="none" d=" M258.887665,67.999954   C264.924042,58.255695 270.786804,48.844185 276.994354,38.879204   C283.208740,49.648666 289.160278,59.757923 294.804016,70.036179   C295.418274,71.154907 294.535645,73.373306 293.869507,74.868820   C291.111725,81.060295 287.206177,86.915031 285.500946,93.363808   C282.162811,105.987976 292.276886,114.850937 304.846375,111.053734   C311.685638,108.987617 315.177124,103.297813 313.576202,95.891930   C312.461548,90.735237 310.645172,85.730232 309.210938,80.889252   C314.017273,79.055489 319.018402,77.658478 323.507812,75.291084   C328.012787,72.915512 332.007629,69.572487 336.624969,66.377411   C335.950134,68.436546 335.490112,70.368774 334.703613,72.157440   C327.615143,88.278465 320.419373,104.352501 313.389038,120.498665   C312.192322,123.247131 310.928619,124.111076 307.752838,123.452675   C292.748840,120.342064 277.702087,117.289597 262.232300,120.020241   C255.514114,121.206093 248.785095,122.357925 242.025253,123.256035   C240.769791,123.422821 238.508331,122.654625 238.119705,121.727516   C230.565231,103.705330 223.220215,85.595345 216.283203,66.861877   C224.055878,73.825211 232.290894,79.656662 243.579880,80.163239   C242.132370,85.270416 240.857574,89.520187 239.727936,93.808212   C237.694885,101.525490 239.032028,106.511940 243.932617,109.946266   C248.395462,113.073807 254.566971,113.086830 259.457550,109.979050   C266.279572,105.643898 269.185486,100.629860 267.008606,93.804268   C265.020142,87.569450 261.766113,81.679207 258.571472,75.913239   C256.988159,73.055580 256.393158,70.828819 258.887665,67.999954  M271.545593,61.036495   C265.056519,68.042587 264.384430,75.329391 270.438263,82.981842   C270.941925,83.618530 271.184998,84.459366 271.561371,85.199150   C275.289001,92.526413 275.263885,99.856903 271.656830,107.227226   C270.739410,109.101822 269.989197,111.058235 268.742859,113.949844   C274.092255,113.673111 278.444092,113.447990 284.100464,113.155388   C275.434692,99.230927 277.942169,87.309776 285.416565,75.751762   C285.864685,75.058823 286.371552,74.306969 286.496796,73.525734   C286.668152,72.457024 286.883087,71.124077 286.414734,70.267960   C283.340637,64.648720 280.087524,59.127388 276.556396,52.989197   C274.719269,55.934872 273.322662,58.174221 271.545593,61.036495  z"/>
<path fill="#EC353A" opacity="1.000000" stroke="none" d=" M84.922974,376.668365   C85.077515,376.606384 85.228355,376.502319 85.387115,376.488403   C96.643059,375.500916 96.652779,375.497406 100.987526,385.654175   C105.602608,396.467865 110.196861,407.290405 115.252647,419.172394   C120.364639,407.278015 125.054199,396.417572 129.701416,385.539032   C134.228180,374.942474 134.209183,374.934357 146.541992,376.830475   C146.541992,395.674835 146.541992,414.563507 146.541992,433.767609   C142.846512,433.767609 139.271301,433.767609 135.293060,433.767609   C135.293060,422.193634 135.293060,410.604797 135.293060,399.015961   C134.979080,398.936981 134.665085,398.858002 134.351105,398.779022   C131.385132,405.863708 128.410446,412.944763 125.457077,420.034698   C124.115570,423.255188 122.633781,426.433411 121.549522,429.740295   C120.479919,433.002594 118.773674,434.262787 115.125854,434.250732   C111.597275,434.239044 110.225540,432.873169 109.037460,429.886444   C104.893822,419.469574 100.498184,409.152985 95.223740,398.997223   C95.223740,410.024902 95.223740,421.052612 94.907104,432.628967   C94.319595,433.345917 94.132332,433.580841 94.028679,433.882446   C91.304420,433.938171 88.580154,433.993896 85.315147,433.769287   C84.598366,433.242584 84.362625,433.086304 84.067169,433.020081   C84.000427,414.983093 83.933685,396.946075 84.194366,378.303040   C84.655518,377.354126 84.789246,377.011261 84.922974,376.668365  z"/>
<path fill="#EC3338" opacity="1.000000" stroke="none" d=" M257.011505,374.002869   C257.068390,393.363983 257.125305,412.725067 256.875885,432.635254   C256.309174,433.353394 256.128510,433.584747 256.027588,433.878387   C252.726074,433.878387 249.424545,433.878387 245.880630,433.878387   C245.612030,432.257202 245.356110,430.712585 245.082047,429.058472   C233.652603,437.064056 222.958969,436.658600 215.433624,428.109802   C207.704285,419.329315 207.597610,403.230011 215.210098,394.363617   C222.412613,385.974609 233.621933,385.472504 245.609039,393.602753   C245.609039,387.031647 245.609039,380.996307 245.965134,374.410004   C246.541626,373.598450 246.762024,373.337860 246.982437,373.077332   C249.696426,373.029205 252.410400,372.981079 255.671280,373.220520   C256.422882,373.768738 256.687317,373.933655 257.011505,374.002869  M227.690842,423.004578   C232.649841,425.872101 237.396881,425.203766 241.460510,421.496674   C245.990967,417.363647 246.535645,411.963562 244.907730,406.321350   C243.378662,401.021576 238.863113,397.818970 233.353699,397.853546   C228.105042,397.886475 223.673080,401.017883 222.156570,406.121338   C220.227448,412.613312 221.544159,418.276337 227.690842,423.004578  z"/>
<path fill="#EC3439" opacity="1.000000" stroke="none" d=" M322.317871,415.065704   C319.414734,413.185547 316.851410,411.351227 314.020691,410.143585   C310.363281,408.583313 306.418549,407.705261 302.729919,406.207306   C296.766052,403.785431 293.536835,399.313202 293.467651,392.734711   C293.400452,386.345856 295.894257,381.278473 301.656189,378.399231   C309.568817,374.445312 317.771698,374.386414 325.725616,378.246002   C330.633209,380.627289 333.626556,384.710968 334.159210,390.847076   C330.187775,391.352600 326.342468,391.842072 322.377838,392.346710   C320.579071,387.444489 317.365082,384.408966 312.502747,385.354462   C310.065430,385.828430 307.199280,388.025909 306.049896,390.235901   C304.486542,393.241882 306.455353,396.165863 309.538788,397.480743   C313.503143,399.171295 317.642426,400.456177 321.721252,401.872864   C331.910217,405.411774 335.759949,410.357788 335.060883,419.066925   C334.409882,427.177460 328.373413,433.192719 318.573120,434.245544   C314.091522,434.726990 309.224854,434.156342 304.887482,432.868439   C297.955536,430.810120 293.875916,425.778229 293.281494,417.829895   C297.273956,417.829895 301.148010,417.829895 305.139709,417.829895   C308.376709,424.455872 312.426880,426.698456 318.194550,424.573120   C322.484467,422.992310 323.935822,419.797668 322.317871,415.065704  z"/>
<path fill="#EC353A" opacity="1.000000" stroke="none" d=" M452.097290,434.111542   C440.679596,430.249390 435.136017,422.319427 435.337891,410.638977   C435.529083,399.577057 441.120789,391.569885 450.735443,388.590149   C468.343079,383.133301 484.139099,396.826447 480.172882,414.654297   C469.358429,414.654297 458.429413,414.654297 447.517242,414.654297   C447.324310,424.434570 458.274353,427.257935 463.851654,423.637390   C470.314270,419.442108 470.288452,419.402344 478.716766,420.039673   C478.192322,430.037231 465.529663,436.872650 452.097290,434.111542  M449.272980,406.950989   C455.714264,406.950989 462.155548,406.950989 468.625610,406.950989   C468.066376,400.743652 464.527069,397.337860 458.712250,397.067993   C453.103760,396.807739 448.344666,400.376923 447.522095,405.561646   C447.459991,405.952972 448.123688,406.459473 449.272980,406.950989  z"/>
<path fill="#EC3439" opacity="1.000000" stroke="none" d=" M169.629440,415.006653   C168.739883,419.458710 170.934402,422.767487 174.530441,423.751282   C177.899231,424.672943 183.264633,425.185791 185.152802,423.290131   C190.080627,418.342957 195.363052,420.161072 200.801315,419.949707   C197.639801,431.438721 186.017624,437.261841 173.233429,434.028381   C161.310120,431.012634 154.432144,418.508240 157.397491,405.238159   C160.316422,392.175903 171.649536,385.247833 185.522980,388.044678   C197.306137,390.420135 204.047150,401.247955 201.677521,414.815796   C191.207672,414.815796 180.617218,414.815796 169.629440,415.006653  M180.317551,397.071869   C172.930878,397.516693 169.348709,400.747772 169.567551,406.740692   C176.338211,406.740692 183.106049,406.740692 189.875595,406.740692   C189.703735,400.952545 187.865555,398.977112 180.317551,397.071869  z"/>
<path fill="#EC3439" opacity="1.000000" stroke="none" d=" M347.069183,389.018280   C350.554352,388.774445 354.039520,388.530640 357.539917,388.761658   C357.684723,389.485748 357.814270,389.734924 357.943817,389.984131   C358.015259,398.117920 357.923920,406.257294 358.203217,414.383942   C358.491882,422.782867 365.986115,427.350739 373.219757,423.756287   C377.352142,421.702850 378.453278,417.948029 378.513977,413.778473   C378.610687,407.135529 378.545746,400.490173 378.548737,393.845856   C378.549561,392.058441 378.548889,390.271027 378.548889,388.280029   C382.596680,388.280029 386.060791,388.280029 389.553925,388.751526   C389.718872,389.481323 389.854767,389.739594 389.990662,389.997894   C390.046356,404.027130 390.102051,418.056335 389.857086,432.634521   C389.295776,433.356171 389.118652,433.591705 389.025055,433.890076   C385.881378,433.890076 382.737701,433.890076 379.178864,433.890076   C378.822418,432.749634 378.409241,431.427490 377.922028,429.868591   C377.154022,430.331543 376.446259,430.703003 375.797058,431.158051   C369.501068,435.570892 362.744934,435.963531 356.016479,432.684326   C349.371429,429.445770 346.784180,423.459900 346.730652,416.315308   C346.667236,407.853638 346.734741,399.391022 347.021729,390.390991   C347.377899,389.757690 347.543884,389.606873 347.523804,389.575623   C347.395020,389.375244 347.225372,389.201080 347.069183,389.018280  z"/>
<path fill="#EC383D" opacity="1.000000" stroke="none" d=" M414.762085,429.773560   C415.047638,432.778961 414.518372,434.423523 411.364563,434.136688   C408.766602,433.900421 406.130096,434.088470 403.281250,434.088470   C403.281250,418.670868 403.281250,403.757080 403.281250,388.483948   C406.905975,388.483948 410.468658,388.483948 414.408203,388.483948   C414.608826,390.120789 414.819397,391.838440 414.957733,392.966888   C419.169495,390.933441 423.447021,388.868225 428.621979,386.369720   C428.621979,391.782196 428.621979,395.518463 428.621979,399.245789   C428.314636,399.445862 428.059906,399.751221 427.785095,399.770538   C416.461578,400.565552 414.801331,402.343903 414.765228,413.818726   C414.748993,418.979126 414.762390,424.139557 414.762085,429.773560  z"/>
<path fill="#ED3A3F" opacity="1.000000" stroke="none" d=" M281.810181,430.735596   C281.030518,432.166687 280.338684,433.844116 279.457825,433.950073   C276.548920,434.299927 273.571716,434.081970 270.347534,434.081970   C270.347534,418.666412 270.347534,403.666870 270.347534,388.393433   C274.126923,388.393433 277.681183,388.393433 281.811432,388.393433   C281.811432,402.481934 281.811432,416.372070 281.810181,430.735596  z"/>
<path fill="#0A0A0A" opacity="1.000000" stroke="none" d=" M254.022369,463.411499   C255.174515,464.526672 255.940430,465.644714 256.704987,466.760773   C263.489594,461.719940 270.152496,461.690918 274.872559,466.755005   C279.564117,471.788483 279.499512,481.375061 274.740051,486.419159   C270.003693,491.438660 263.381409,491.401062 256.281067,486.075317   C256.281067,491.330048 256.281067,496.366302 256.281067,501.738739   C254.790115,501.911621 253.576462,502.052368 251.844025,502.253235   C251.844025,489.707886 251.818527,477.461182 251.920212,465.215515   C251.925232,464.610413 253.038773,464.014496 254.022369,463.411499  M268.600189,485.619873   C269.736298,484.683472 271.070190,483.905609 271.971466,482.781036   C274.701080,479.375183 274.655579,473.782196 272.025818,470.251251   C269.516602,466.882141 265.987793,466.087372 262.275177,467.238251   C258.007629,468.561157 256.092529,471.968445 256.023956,476.373627   C255.917313,483.222504 260.132599,486.600677 268.600189,485.619873  z"/>
<path fill="#0B0B0B" opacity="1.000000" stroke="none" d=" M213.401611,484.690613   C213.401581,486.621399 213.401581,488.091339 213.401581,489.708923   C211.838379,489.708923 210.698685,489.708923 209.082092,489.708923   C209.082092,484.783905 209.082092,479.866821 209.082092,474.785675   C203.327362,474.785675 198.044998,474.785675 192.262939,474.785675   C192.262939,479.593597 192.262939,484.476257 192.262939,489.605103   C190.553513,489.605103 189.331238,489.605103 187.967987,489.605103   C187.967987,478.576569 187.967987,467.612030 187.967987,456.321320   C189.207275,456.230713 190.421387,456.141907 192.047089,456.023041   C192.047089,461.000427 192.047089,465.763123 192.047089,470.701904   C197.831177,470.701904 203.226425,470.701904 208.961975,470.701904   C208.961975,465.887939 208.961975,461.285065 208.961975,456.385223   C210.514984,456.385223 211.734024,456.385223 213.401642,456.385223   C213.401642,465.653503 213.401642,474.941620 213.401611,484.690613  z"/>
<path fill="#121212" opacity="1.000000" stroke="none" d=" M336.936371,476.074768   C338.795166,463.209167 348.565643,459.137939 357.776672,466.095734   C359.596130,464.926331 361.173004,463.912842 363.750610,462.256165   C363.750610,468.135559 363.750610,472.428223 363.750610,476.720886   C363.750610,480.870209 363.750610,485.019531 363.750610,490.695557   C361.354858,489.322906 359.817047,488.441803 357.678497,487.216553   C354.348297,490.258881 349.266815,491.592102 343.850769,488.875122   C338.922302,486.402802 336.992310,481.887726 336.936371,476.074768  M351.267761,466.902893   C344.401917,467.252350 340.766632,471.284790 341.490112,477.748718   C342.152710,483.668640 346.587585,487.150452 352.188751,485.992950   C356.474762,485.107239 358.643738,482.244415 359.007507,477.967346   C359.523041,471.905762 357.846832,469.279205 351.267761,466.902893  z"/>
<path fill="#EC353A" opacity="1.000000" stroke="none" d=" M272.169800,126.034859   C261.682678,127.422768 251.668579,128.797104 241.092514,130.248566   C240.951019,129.847977 240.495682,128.558746 239.912033,126.906273   C263.660065,119.808830 286.949646,119.338432 310.635162,126.942238   C310.288361,128.386230 309.999084,129.590698 309.956482,129.768051   C297.260590,128.493225 284.951721,127.257256 272.169800,126.034859  z"/>
<path fill="#111111" opacity="1.000000" stroke="none" d=" M227.957977,489.527161   C219.902359,485.589813 216.970871,477.155457 220.801804,469.770325   C224.265182,463.093750 233.040283,460.856445 239.805649,464.925079   C246.048676,468.679504 247.950974,477.821747 243.692841,484.317871   C239.988480,489.969238 234.480042,490.871887 227.957977,489.527161  M237.836548,468.478577   C233.631485,466.018219 229.485107,465.856903 226.106064,469.674561   C222.904465,473.291748 223.014465,477.699188 224.960983,481.826782   C226.859085,485.851746 230.526886,486.834351 234.666809,485.939423   C241.633743,484.433319 243.551697,475.685059 237.836548,468.478577  z"/>
<path fill="#0F0F0F" opacity="1.000000" stroke="none" d=" M301.593567,471.119202   C300.159546,470.642731 299.093781,470.100220 297.991180,469.647339   C295.723145,468.715820 293.487915,467.427917 291.130737,467.122009   C290.145966,466.994202 288.308105,468.828979 287.945801,470.085144   C287.690674,470.969574 289.006439,472.920135 290.085052,473.450531   C292.441284,474.609039 295.126892,475.074921 297.616180,475.991516   C300.780731,477.156738 303.209961,479.070312 303.089508,482.857025   C302.963501,486.818939 300.312561,488.802582 296.950226,489.819824   C290.522583,491.764496 284.635376,488.604614 282.532562,480.946838   C285.045959,482.395752 286.537506,483.357941 288.118408,484.139343   C289.845581,484.993103 291.775360,486.476654 293.398193,486.232544   C295.324036,485.942810 297.016724,484.103271 298.810486,482.935425   C297.516205,481.650238 296.427124,479.962036 294.879700,479.174072   C292.541962,477.983673 289.506439,477.935760 287.473022,476.441956   C285.567505,475.042023 283.461884,472.373718 283.499329,470.300690   C283.537170,468.204437 285.649597,465.388428 287.636200,464.227234   C293.496063,460.802094 301.213562,463.824554 302.709076,469.674500   C302.806946,470.057465 302.215790,470.616577 301.593567,471.119202  z"/>
<path fill="#EC292F" opacity="1.000000" stroke="none" d=" M402.655182,212.840942   C402.051636,211.304718 401.073242,209.353729 401.068329,207.400269   C400.975586,170.539108 401.021454,133.677612 400.929718,96.816460   C400.924957,94.895195 399.952789,92.976349 399.003754,90.963097   C399.556122,89.368584 400.535736,87.867355 401.515381,86.366127   C401.921417,86.425407 402.327484,86.484688 402.733521,86.543968   C402.733521,128.504318 402.733521,170.464661 402.655182,212.840942  z"/>
<path fill="#0B0B0B" opacity="1.000000" stroke="none" d=" M326.349792,482.701477   C328.351257,484.474854 330.306671,485.784943 332.978271,487.574829   C332.978271,487.388153 332.978271,488.489380 332.978271,489.570801   C323.917542,490.269135 321.986572,488.541138 321.977600,479.929535   C321.974274,476.765503 322.161987,473.584991 321.882812,470.445801   C321.776611,469.251343 320.474060,468.206940 319.958649,466.991608   C319.537903,465.999512 319.477051,464.854736 319.256622,463.777679   C323.738922,463.203247 321.182983,459.424164 322.315857,457.070557   C323.460846,457.070557 324.706116,457.070557 326.248352,457.070557   C326.248352,459.065796 326.248352,460.856628 326.248352,461.937225   C327.945801,465.182007 333.615631,460.625519 333.080078,466.978577   C330.927704,466.978577 328.855804,466.978577 326.303741,466.978577   C326.303741,472.356842 326.303741,477.297516 326.349792,482.701477  z"/>
<path fill="#2C2C2C" opacity="1.000000" stroke="none" d=" M375.832733,480.927002   C375.832611,483.080719 375.710388,484.757141 375.858185,486.409424   C376.151764,489.691467 374.811584,490.663513 371.527832,489.484924   C371.527832,477.948883 371.527832,466.342621 371.527832,454.360352   C372.820129,454.360352 374.140472,454.360352 375.832733,454.360352   C375.832733,463.167938 375.832733,471.803375 375.832733,480.927002  z"/>
<path fill="#EC3439" opacity="1.000000" stroke="none" d=" M280.401917,381.469543   C279.797852,381.857147 279.510162,382.025757 279.202789,382.142639   C275.056549,383.719666 271.569641,382.867584 269.565765,378.800629   C267.991241,375.605042 268.849976,372.510834 271.877258,370.545624   C275.159302,368.415100 278.672455,368.562286 281.326416,371.554016   C284.173431,374.763367 283.802704,378.184418 280.401917,381.469543  z"/>
<path fill="#2C2C2C" opacity="1.000000" stroke="none" d=" M310.258606,463.471436   C313.065796,462.950775 313.829041,463.979218 313.781006,466.385803   C313.645172,473.193573 313.589661,480.010193 313.795227,486.814484   C313.898468,490.230682 312.227600,490.291992 309.862732,489.709991   C309.862732,480.990509 309.862732,472.305389 310.258606,463.471436  z"/>
<path fill="#EC353A" opacity="1.000000" stroke="none" d=" M225.794250,282.693176   C222.863281,282.780365 222.981461,284.841309 222.986893,286.920746   C223.009689,295.654175 222.991440,304.387695 222.981873,313.594238   C222.424026,312.832794 221.409058,311.604004 221.393845,310.362946   C221.265884,299.916260 221.320938,289.467316 222.473831,278.579498   C223.546951,279.847931 224.620071,281.116364 225.794250,282.693176  z"/>
<path fill="#EB131C" opacity="1.000000" stroke="none" d=" M164.053192,94.498932   C164.398132,94.607109 164.939102,95.179230 164.937622,95.749954   C164.882324,116.955574 164.776886,138.161072 164.390289,159.663681   C164.066956,138.294601 164.031616,116.628410 164.053192,94.498932  z"/>
<path fill="#0A0A0A" opacity="1.000000" stroke="none" d=" M314.023254,457.477051   C312.480927,457.995239 310.964020,458.533997 309.686951,458.187805   C309.174835,458.049011 308.779694,455.836517 309.099701,454.806702   C309.341431,454.028778 310.804382,453.630371 311.723785,453.063019   C312.530823,454.422821 313.337891,455.782623 314.023254,457.477051  z"/>
<path fill="#EB1E25" opacity="1.000000" stroke="none" d=" M320.913269,178.379547   C325.399994,176.376266 321.589691,172.103027 323.697449,169.281860   C323.988647,173.073578 323.988647,177.141632 323.988647,181.924545   C322.807770,180.634171 321.920380,179.664520 320.913269,178.379547  z"/>
<path fill="#EC353A" opacity="1.000000" stroke="none" d=" M233.651306,319.455322   C239.510437,320.720917 245.626648,322.272461 251.873627,324.147339   C245.972382,322.894165 239.940384,321.317719 233.651306,319.455322  z"/>
<path fill="#EB1E25" opacity="1.000000" stroke="none" d=" M323.986938,157.565384   C323.631683,155.901184 323.334076,153.822647 323.047089,151.319305   C323.386627,152.980011 323.715576,155.065536 323.986938,157.565384  z"/>
<path fill="#EC353A" opacity="1.000000" stroke="none" d=" M225.102295,315.295837   C226.152206,315.520508 227.418030,315.998535 228.814316,316.811066   C227.735931,316.613464 226.527054,316.081329 225.102295,315.295837  z"/>
<path fill="#EC353A" opacity="1.000000" stroke="none" d=" M229.078430,317.362640   C230.144363,317.547699 231.422287,317.993622 232.857666,318.760834   C231.773560,318.595917 230.531967,318.109711 229.078430,317.362640  z"/>
<path fill="#EB131C" opacity="1.000000" stroke="none" d=" M165.822220,84.835327   C165.485168,85.413803 165.031860,85.694908 164.299927,85.985779   C164.116165,85.169563 164.211044,84.343582 164.305908,83.517609   C164.772598,83.857727 165.239273,84.197838 165.822220,84.835327  z"/>
<path fill="#EB1E25" opacity="1.000000" stroke="none" d=" M389.303406,433.917053   C389.118652,433.591705 389.295776,433.356171 389.763062,433.095642   C389.840393,433.319824 389.711090,433.631927 389.303406,433.917053  z"/>
<path fill="#EB1E25" opacity="1.000000" stroke="none" d=" M256.305298,433.904907   C256.128510,433.584747 256.309174,433.353394 256.774353,433.094879   C256.847107,433.314087 256.715057,433.622742 256.305298,433.904907  z"/>
<path fill="#EB1E25" opacity="1.000000" stroke="none" d=" M94.311264,433.906128   C94.132332,433.580841 94.319595,433.345917 94.800888,433.087280   C94.872154,433.307892 94.733002,433.618866 94.311264,433.906128  z"/>
<path fill="#EB131C" opacity="1.000000" stroke="none" d=" M84.053963,433.288147   C84.362625,433.086304 84.598366,433.242584 84.868179,433.683624   C84.654892,433.770966 84.347824,433.663605 84.053963,433.288147  z"/>
<path fill="#EB1E25" opacity="1.000000" stroke="none" d=" M390.048218,389.747498   C389.854767,389.739594 389.718872,389.481323 389.741211,389.124756   C389.968231,389.183350 390.037018,389.340210 390.048218,389.747498  z"/>
<path fill="#EB131C" opacity="1.000000" stroke="none" d=" M357.995605,389.742371   C357.814270,389.734924 357.684723,389.485748 357.707214,389.139954   C357.859222,389.043396 358.047363,389.500641 357.995605,389.742371  z"/>
<path fill="#EB1E25" opacity="1.000000" stroke="none" d=" M346.950928,389.256592   C347.225372,389.201080 347.395020,389.375244 347.523804,389.575623   C347.543884,389.606873 347.377899,389.757690 347.126526,389.932922   C346.914307,389.840088 346.873474,389.667480 346.950928,389.256592  z"/>
<path fill="#EB131C" opacity="1.000000" stroke="none" d=" M84.611153,376.729919   C84.789246,377.011261 84.655518,377.354126 84.283142,377.840637   C84.129433,377.586670 84.214378,377.189087 84.611153,376.729919  z"/>
<path fill="#EB1E25" opacity="1.000000" stroke="none" d=" M323.046143,150.676056   C322.820221,150.706436 322.531982,150.439133 322.166901,149.878174   C322.388000,149.849121 322.685913,150.113739 323.046143,150.676056  z"/>
<path fill="#EB1E25" opacity="1.000000" stroke="none" d=" M257.026367,373.711029   C256.687317,373.933655 256.422882,373.768738 256.118530,373.292358   C256.359680,373.190826 256.700470,373.305023 257.026367,373.711029  z"/>
<path fill="#EB1E25" opacity="1.000000" stroke="none" d=" M246.663391,373.058655   C246.762024,373.337860 246.541626,373.598450 246.077927,373.956085   C246.004547,373.715424 246.174454,373.377716 246.663391,373.058655  z"/>
<path fill="#FEF6F7" opacity="1.000000" stroke="none" d=" M271.735840,60.725029   C273.322662,58.174221 274.719269,55.934872 276.556396,52.989197   C280.087524,59.127388 283.340637,64.648720 286.414734,70.267960   C286.883087,71.124077 286.668152,72.457024 286.496796,73.525734   C286.371552,74.306969 285.864685,75.058823 285.416565,75.751762   C277.942169,87.309776 275.434692,99.230927 284.100464,113.155388   C278.444092,113.447990 274.092255,113.673111 268.742859,113.949844   C269.989197,111.058235 270.739410,109.101822 271.656830,107.227226   C275.263885,99.856903 275.289001,92.526413 271.561371,85.199150   C271.184998,84.459366 270.941925,83.618530 270.438263,82.981842   C264.384430,75.329391 265.056519,68.042587 271.735840,60.725029  z"/>
<path fill="#FFFBFB" opacity="1.000000" stroke="none" d=" M227.361694,422.823792   C221.544159,418.276337 220.227448,412.613312 222.156570,406.121338   C223.673080,401.017883 228.105042,397.886475 233.353699,397.853546   C238.863113,397.818970 243.378662,401.021576 244.907730,406.321350   C246.535645,411.963562 245.990967,417.363647 241.460510,421.496674   C237.396881,425.203766 232.649841,425.872101 227.361694,422.823792  z"/>
<path fill="#FEF6F7" opacity="1.000000" stroke="none" d=" M448.861481,406.931702   C448.123688,406.459473 447.459991,405.952972 447.522095,405.561646   C448.344666,400.376923 453.103760,396.807739 458.712250,397.067993   C464.527069,397.337860 468.066376,400.743652 468.625610,406.950989   C462.155548,406.950989 455.714264,406.950989 448.861481,406.931702  z"/>
<path fill="#FEF8F9" opacity="1.000000" stroke="none" d=" M180.718842,397.099548   C187.865555,398.977112 189.703735,400.952545 189.875595,406.740692   C183.106049,406.740692 176.338211,406.740692 169.567551,406.740692   C169.348709,400.747772 172.930878,397.516693 180.718842,397.099548  z"/>
<path fill="#F9F9F9" opacity="1.000000" stroke="none" d=" M268.215942,485.753540   C260.132599,486.600677 255.917313,483.222504 256.023956,476.373627   C256.092529,471.968445 258.007629,468.561157 262.275177,467.238251   C265.987793,466.087372 269.516602,466.882141 272.025818,470.251251   C274.655579,473.782196 274.701080,479.375183 271.971466,482.781036   C271.070190,483.905609 269.736298,484.683472 268.215942,485.753540  z"/>
<path fill="#F9F9F9" opacity="1.000000" stroke="none" d=" M351.671967,466.945068   C357.846832,469.279205 359.523041,471.905762 359.007507,477.967346   C358.643738,482.244415 356.474762,485.107239 352.188751,485.992950   C346.587585,487.150452 342.152710,483.668640 341.490112,477.748718   C340.766632,471.284790 344.401917,467.252350 351.671967,466.945068  z"/>
<path fill="#F9F9F9" opacity="1.000000" stroke="none" d=" M238.131439,468.754272   C243.551697,475.685059 241.633743,484.433319 234.666809,485.939423   C230.526886,486.834351 226.859085,485.851746 224.960983,481.826782   C223.014465,477.699188 222.904465,473.291748 226.106064,469.674561   C229.485107,465.856903 233.631485,466.018219 238.131439,468.754272  z"/>
</svg>